<svg xmlns="http://www.w3.org/2000/svg" viewBox="0 0 1254 1254" role="img" aria-label="TimeTracker">
  <g fill="#2586eb">
    <path d="M648.66 257.97c-.29-1.84 1.07-3.18 2.45-4.13 6.64-.76 13.26.68 19.92.61 13.43 1.33 26.81 3.21 40.07 5.75 59.71 12.13 115.73 41.66 159.6 83.94 24.4 22.77 44.64 49.78 61.02 78.81 26.35 48.53 40.9 103.61 40.74 158.9-.23 27.79-3.11 55.67-9.99 82.64-19.68-.11-39.39.35-59.05-.17-.07-.3-.19-.9-.25-1.2 6.5-23.87 10.2-48.5 11.05-73.23.32-35.39-5.02-71.09-17.88-104.17-9.03-24.55-22.09-47.53-37.7-68.48-23.12-30.26-52.62-55.61-85.97-73.98-31.83-17.82-67.34-29.26-103.71-32.44-5.94-.68-11.95-.63-17.89-1.39-1.46-.49-2.66-1.97-2.52-3.55.11-16.01-.19-32.03.11-48.04z"/>
    <path d="M323.51 426.63c11.68-2.16 24.21 1.01 33.42 8.52 7.94 6.72 13.49 16.35 14.58 26.77 2.45 17.43-7.89 35.52-23.95 42.59-12.46 5.21-27.59 4.5-38.89-3.2-9.66-5.98-16.18-16.35-18.22-27.43-1.88-9.34.13-19.25 4.89-27.42 5.72-10.39 16.47-17.66 28.05-19.83zm19.85 25.79c-6.57 6.61-13.07 13.29-19.59 19.94-3.33-2.35-5.7-5.81-9.04-8.13-4.43-2.82-10.49 3.91-6.95 7.92 4.03 4.01 7.95 8.15 12.11 12.03 1.82 2.1 5.43 2.12 7.21-.06 9.07-8.92 17.83-18.16 26.92-27.06 3.53-3.2.43-9.48-4.11-9.39-2.95.06-4.59 2.96-6.55 4.75z"/>
    <path d="M323.24 548.17c10.9-2.16 22.57.45 31.55 6.98 6.89 5.27 12.63 12.39 15.01 20.84 4.17 12.71 1.48 27.42-6.98 37.79-11.45 14.92-33.92 19.71-50.44 10.72-8.59-4.4-15.61-11.76-19.23-20.74-4.45-10.42-4.27-22.72.78-32.9 5.44-11.64 16.71-20.27 29.31-22.69zm24.29 21.44c-8.27 7.68-15.73 16.26-24.13 23.8-3.11-2.86-5.68-6.41-9.28-8.66-3.55-.86-6.67 1.97-7.6 5.2.6 1.46.9 3.17 2.18 4.25 3.92 3.8 7.62 7.83 11.44 11.73 2.03 2.08 5.47 1.6 7.24-.58 9.05-9.27 18.4-18.26 27.2-27.77 3.39-4.24-2.41-10.52-7.05-7.97z"/>
    <path d="M710.48 673.99c.08-13.73 11.88-25.95 25.48-26.9 18.68-.24 37.36.24 56.05-.18 6.05-.16 12.06 1.58 17.04 5.07 5.84 3.58 9.18 9.82 12.22 15.73 2.33 4.65 6.82 8.04 11.82 9.37 5.48 1.73 11.29 1 16.94 1.12 30.69.13 61.37-.08 92.06.04 8.13-.27 16.51 4.12 19.96 11.67 4.05 7.34 2.2 15.93 2.55 23.9-28.56-.07-57.13.03-85.69-.06-16.97.18-33.96-.37-50.9.45-6.65-.56-13.34.35-19.98-.39-16.33 0-32.66-.1-48.98.08-4.35.7-8.69-.11-13.03-.08-7.97.81-15.51-.46-21.79 3.41-6.3 3.01-10.73 8.5-14.65 14.07-.24-19.1-.1-38.21-.1-57.32z"/>
  </g>
  <g fill="#183466">
    <path d="M564.94 265.31c20-4.83 40.56-7.36 61.13-7.51 2.32-.21 4.92 1.63 4.66 4.15-.06 14.61-.02 29.22-.1 43.82-.71 3.48-4.87 3.04-7.57 3.34-31.19.97-61.92 8.98-90.45 21.41-30.44 13.32-58.56 31.93-82.54 54.96-22.39-.13-44.79.04-67.18-.12 45.11-58.68 110.25-101.86 182.05-120.05z"/>
    <path d="M585.96 369.81c39.98-12.54 83.77-11.84 123.64.78 30.89 9.94 59.35 27.53 81.85 50.95 23.82 24.57 40.99 55.4 50.14 88.34 14.19 50.48 11.06 105.39-7.51 154.33-.94.41-1.95.55-3.03.43 12.99-32.43 18.28-67.77 16.46-102.61-1.64-36.36-11.77-72.55-30.77-103.7-20.41-33.98-51.36-61.6-87.61-77.68-33.02-14.97-70.16-19.87-106.09-16.1-43.27 4.62-85.21 24-115.57 55.36-.08-1.54-.68-3.46.88-4.49 21.66-21.18 48.57-36.97 77.6-45.61z"/>
    <path d="M643.45 389.61c2.41-.83 5.4-.2 6.95 1.93 1.71 2.1 1.08 4.97 1.21 7.47-.14 5.52.31 11.06-.13 16.57-1.17 5.92-10.85 5.98-11.94-.01-.39-6.18-.12-12.4-.24-18.6-.39-3.01 1.01-6.48 4.15-7.36z"/>
    <path d="M398.23 460.21c24.59-.29 49.19-.04 73.78-.13 4.49-.5 7.96 4.42 6.48 8.58-.84 2.65-3.68 4.45-6.42 4.47-24.02.04-48.04 0-72.06 0-2.85.13-5.72-1.71-6.56-4.47-1.23-3.47 1.1-7.85 4.78-8.45z"/>
    <path d="M747.87 476.83c3.61-2.89 9.57-1.8 11.92 2.2 1.98 3.43 1.31 8.31-1.85 10.85-27.99 26.64-55.86 53.43-83.9 80.03 1.1 5.5 1.42 11.36-.51 16.71-3.12 9.33-11.64 16.69-21.4 18.15-9.84 1.62-20.58-2.28-26.46-10.47-7.66-9.76-7.35-24.65.54-34.18 7.89-10.5 24.03-13.86 35.13-6.55 24.79-22.32 49.99-44.17 74.81-66.46 4.01-3.31 7.65-7.06 11.73-10.28zm-104.44 87.78c-5.92 2.01-10.25 8.14-9.31 14.48.46 7.67 8.64 13.13 15.96 11.63 6.79-1.03 11.74-8.01 10.79-14.75-.51-8.09-9.76-14.51-17.44-11.36z"/>
    <path d="M524.39 572.56c7.2-.37 14.43-.11 21.65-.16 4.4-.46 7.78 4.67 5.98 8.61-.85 2.41-3.37 4.02-5.91 3.83-6.73.1-13.45.01-20.17.08-4.12.42-7.44-4.45-5.88-8.19.71-1.91 2.29-3.71 4.33-4.17z"/>
    <path d="M789.38 572.55c7.48-.17 14.98-.3 22.46-.07 4.74.24 6.97 6.69 3.9 10.11-2.3 3.05-6.44 2.13-9.72 2.28-5.8-.14-11.66.38-17.42-.27-5.65-1.76-5.05-11.07.78-12.05z"/>
    <path d="M398.39 581.49c24.83-.14 49.67-.1 74.49-.03 4.59.03 7.18 5.7 5.08 9.51-1.38 2.4-4.18 3.75-6.92 3.48-24.36-.02-48.73.05-73.08-.07-6.66-1.34-6.27-12.06.43-12.89z"/>
    <path d="M397.25 703.2c1.19-.48 2.44-.67 3.75-.56 23.68.09 47.36.02 71.04.06 3.37-.11 6.8 2.82 6.65 6.32.37 3.63-3.03 6.97-6.65 6.65-24.56.02-49.12.06-73.68-.02-6.38-.46-6.94-10.55-1.11-12.45z"/>
    <path d="M642.34 704.34c3.47-2.18 8.34.61 8.57 4.59.38 7.03-.01 14.08-.03 21.11-.42 5.06-7.8 6.47-10.64 2.66-1.67-1.84-1.22-4.46-1.3-6.71.1-5.69-.1-11.38.18-17.06.09-1.98 1.5-3.72 3.22-4.59z"/>
    <path d="M735.43 717.76c79.51-.44 159.06.07 238.59-.24 5.84-.17 11.9 2.43 15.22 7.36 3.08 4.54 4.05 10.55 2.25 15.78-12.7 40.54-25.17 81.16-37.64 121.76-3.36 10.9-6.58 22.01-12.57 31.81-12.78 22.29-35.3 39.24-60.81 43.54-10.03 2-20.27 1.58-30.44 1.57-56.36-.01-112.72.03-169.08-.02-5.66-.32-11.51-2.81-14.63-7.73-3.08-4.49-3.71-10.22-2.88-15.48 14.4-55.21 29.72-110.19 44.83-165.22 1.96-6.39 2.71-13.33 6.56-18.99 4.38-7.46 12.22-12.42 20.6-14.14z"/>
    <path d="M507.51 732.05c24.8 25.99 57.38 44.38 92.36 52.5 23.1 5.57 47.25 6.56 70.8 3.55 7.4-.82 14.59-2.82 21.92-4.04-.03.6-.08 1.81-.11 2.41-20.69 5.07-42.25 6.87-63.5 5.13-34.52-2.76-68.32-14.88-96.57-34.95-8.7-6.25-16.98-13.1-24.66-20.56-.87-1.16-.18-2.75-.24-4.04z"/>
    <path d="M360.25 782.89c21.34-.18 42.69.02 64.03-.1 37.63 49.32 90.57 86.82 149.83 105.33 23.83 7.3 48.63 11.82 73.57 12.52.71 2.38.51 4.89.48 7.36-.35 12.67.11 25.34 0 38.01.1 1.57-.23 3.12-.99 4.52-12.11.33-24.12-1.35-36.11-2.75-54.48-7.28-106.66-28.77-151.53-60.34-39.63-27.75-73.5-63.64-99.28-104.55z"/>
  </g>
  <path fill="#f7aa15" d="M321.54 669.67c8.92-2.04 18.6-1.17 26.82 2.93 11.97 5.66 21.05 17.45 22.86 30.65 1.66 9.01-.32 18.38-4.54 26.42-5.68 9.86-15.41 17.61-26.67 19.92-11.54 2.74-24.12 0.02-33.54-7.15-8.44-5.95-13.98-15.46-15.93-25.51-.8-7.7-.61-15.79 2.53-22.98 5.05-11.91 15.85-21.28 28.47-24.28zm25.08 21.91c-7.62 7.77-15.15 15.62-22.78 23.38-3.04-2.58-5.47-5.82-8.62-8.27-4.5-2.73-11.02 3.21-7.56 7.68 4.61 4.88 9.36 9.65 14.23 14.28 1.53-.2 3.44.31 4.57-1.07 8.54-8.52 16.89-17.23 25.42-25.75 1.52-1.66 3.84-3.24 3.69-5.76.5-4.42-5.77-7.88-8.95-4.49z"/>
</svg>
